<svg xmlns="http://www.w3.org/2000/svg" width="1314" height="1274" viewBox="0 0 1314 1274" version="1.1"><path d="M 843.500 354.017 C 809.839 360.736, 787.680 382.379, 760.394 435.188 C 745.132 464.726, 736.126 480.821, 733.761 482.783 C 732.619 483.731, 731.774 482.458, 729.072 475.720 C 721.214 456.128, 699.367 416.228, 688.942 402.428 C 647.636 347.751, 560.207 372.259, 560.017 438.568 C 559.939 466.029, 595.538 507.019, 657 550.238 C 700.616 580.908, 718.664 602.765, 708.645 612.784 C 704.683 616.745, 688.021 607.670, 658.791 585.632 C 605.684 545.592, 525.681 505.959, 497.500 505.732 C 479.500 505.586, 466.863 519.167, 471.032 534.176 C 474.913 548.147, 488 557.718, 544 587.537 C 602.193 618.524, 626.871 633.817, 640.217 647.163 C 653.749 660.695, 655.758 659.302, 612.299 666.509 C 539.353 678.606, 502.864 694.491, 484.683 722.065 C 473.472 739.067, 471.181 795.706, 480.905 815.459 C 500.536 855.334, 530.611 869.742, 575 860.535 C 593.961 856.602, 611.341 843.869, 631.003 819.507 C 644.966 802.204, 657.011 791.083, 667.312 785.978 C 693.341 773.080, 701.612 785.483, 718.012 862 C 732.716 930.607, 743.682 949.905, 777.438 966.578 C 807.357 981.356, 834.200 974.672, 847.352 949.168 C 861.476 921.781, 860.408 911.427, 837.026 849 C 829.636 829.270, 834.864 809.500, 848.677 804.942 C 857.767 801.942, 873.417 809.329, 895.732 827.155 C 929.375 854.028, 961.583 852.506, 984.955 822.938 C 1011.770 789.014, 1001.134 755.985, 955.933 732.819 C 924.125 716.517, 910.040 686.503, 922.466 661.500 C 934.151 637.988, 946.358 630.395, 1008.500 607.984 C 1060.966 589.063, 1085.052 558.423, 1069.875 529.908 C 1050.176 492.897, 996.572 498.872, 925 546.057 C 887.825 570.565, 871.048 572.247, 863.329 552.239 C 858.590 539.958, 866.439 495.032, 876.997 474 C 881.599 464.834, 890.855 441.519, 894.452 430.034 C 906.222 392.456, 891.101 361.327, 857.792 354.565 C 849.383 352.858, 849.323 352.855, 843.500 354.017 M 841.500 364.884 C 810.366 376.179, 797.350 390.273, 767.513 445 C 757.768 462.875, 748.079 480.425, 745.981 484 C 733.991 504.435, 723.559 501.738, 715.036 476 C 706.003 448.722, 675.540 398.739, 663.162 390.887 C 609.834 357.061, 545.783 418.473, 582.735 468 C 602.897 495.023, 625.050 515.622, 658.500 538.450 C 691.254 560.803, 703.598 571.411, 716.051 587.903 C 727.968 603.684, 725.402 618.583, 710.008 622.998 C 703.487 624.868, 689.926 619.319, 676.379 609.238 C 583.631 540.224, 504.791 501.718, 485.836 516.176 C 466.824 530.677, 479.376 542.783, 559.500 587.228 C 658.970 642.403, 680.272 664.542, 641 671.929 C 630.186 673.963, 572.664 686.803, 559.679 690.081 C 530.071 697.556, 502.051 714.466, 493.626 729.945 C 484.048 747.544, 484.887 799.699, 495.014 816.187 C 512.876 845.269, 533.072 854.916, 565.728 849.965 C 587.665 846.640, 596.794 840.008, 628.769 804.161 C 660.245 768.875, 682.236 760.667, 700.672 777.323 C 708.964 784.814, 714.847 802.016, 727.410 855.500 C 743.638 924.592, 752.873 942.094, 780.370 955.864 C 815.633 973.523, 844.672 955.902, 844.418 917 L 844.337 904.500 836.225 880 C 820.757 833.285, 820.284 818.760, 833.743 803.863 C 848.286 787.765, 869.496 792.605, 903.312 819.736 C 922.669 835.267, 941.126 840.035, 954.551 832.973 C 996.718 810.792, 1000.481 766.746, 961.935 746.546 C 915.483 722.202, 897.725 690.970, 912.640 659.848 C 925.350 633.327, 936.233 625.806, 995 602.931 C 1043.849 583.916, 1063 567.981, 1063 546.349 C 1063 504.615, 1004.847 507.344, 934.781 552.366 C 873.779 591.564, 842.337 578.040, 853.533 517.419 C 858.068 492.863, 860.573 484.031, 866.948 470.114 C 887.299 425.685, 891.562 400.189, 881.736 381.679 C 873.906 366.929, 856.216 359.545, 841.500 364.884" stroke="none" fill="#fc9d26" fill-rule="evenodd"/></svg>