<svg xmlns="http://www.w3.org/2000/svg" width="1038" height="1028" viewBox="0 0 1038 1028" version="1.1"><path d="M 591.171 195.839 C 590.160 197.302, 587.838 201.200, 586.010 204.500 C 584.182 207.800, 580.048 214.325, 576.823 219 C 567.202 232.945, 560.345 243, 554.316 252 C 536.563 278.501, 503.151 324.071, 483.260 348.912 C 476.472 357.388, 470.537 365.005, 470.071 365.837 C 468.917 367.899, 464.236 363.808, 450.869 349.058 C 435.515 332.115, 380.717 277, 379.225 277 C 378.517 277, 377.709 277.594, 377.431 278.320 C 376.917 279.659, 386.925 309.200, 397.864 338.635 C 401.162 347.510, 405.720 361.460, 407.994 369.635 C 410.267 377.811, 413.434 388.775, 415.032 394 C 416.629 399.225, 418.813 406.586, 419.885 410.358 C 421.833 417.217, 421.833 417.217, 418.858 416.622 C 417.222 416.294, 411.747 415.546, 406.692 414.959 C 401.636 414.372, 388.275 411.732, 377 409.092 C 365.725 406.453, 349.975 403.033, 342 401.493 C 334.025 399.954, 320.525 396.931, 312 394.777 C 293.928 390.211, 273.644 386.630, 255.939 384.881 C 242.399 383.544, 240 383.851, 240 386.925 C 240 388.426, 242.143 389.977, 248.750 393.260 C 261.824 399.757, 279.027 409.361, 288.284 415.331 C 309.910 429.278, 351.761 453.180, 367.927 460.817 C 375.519 464.403, 397.831 476.847, 399.947 478.674 C 400.192 478.886, 397.009 482.534, 392.872 486.780 C 388.735 491.026, 382.242 498.100, 378.444 502.500 C 374.645 506.900, 366.568 515.900, 360.493 522.500 C 345.977 538.271, 338.089 547.345, 328.329 559.500 C 323.913 565, 315.005 575.575, 308.534 583 C 294.648 598.934, 276 621.841, 276 622.965 C 276 623.399, 276.681 624.320, 277.512 625.010 C 278.757 626.043, 280.041 625.726, 284.762 623.218 C 291.710 619.528, 322.233 606.419, 336.304 601.082 C 341.912 598.955, 353.250 593.980, 361.500 590.027 C 369.750 586.073, 383.250 579.917, 391.500 576.346 C 399.750 572.775, 414.429 565.607, 424.121 560.417 C 433.812 555.227, 444.164 550.148, 447.125 549.129 C 450.086 548.110, 455.292 545.872, 458.692 544.155 C 465.936 540.498, 465.036 539.344, 467.937 556 C 471.094 574.129, 472.918 590.091, 473.994 609 C 474.939 625.633, 477.526 644.577, 480.342 655.500 C 481.442 659.769, 481.985 660.500, 484.053 660.500 C 486.156 660.500, 486.566 659.906, 487.160 656 C 488.098 649.839, 490.604 643.148, 498.773 625 C 502.610 616.475, 508.998 600.058, 512.969 588.517 C 516.940 576.976, 520.835 566.286, 521.624 564.760 C 523.253 561.610, 522.724 561.604, 542 564.983 C 547.775 565.996, 554.300 567.111, 556.500 567.461 C 558.700 567.811, 570.625 570.311, 583 573.017 C 611.130 579.167, 643.874 585.196, 645.084 584.448 C 647.077 583.216, 645.803 579.225, 641.917 574.522 C 639.671 571.805, 635.081 565.738, 631.716 561.041 C 621.787 547.182, 611.451 533.564, 597.528 516 C 580.935 495.067, 578.996 492.428, 579.020 490.817 C 579.031 490.093, 588.918 483.650, 600.990 476.500 C 613.063 469.350, 629.816 459.424, 638.220 454.443 C 661.561 440.608, 683 426.279, 683 424.512 C 683 420.908, 678.613 420.732, 643 422.911 C 614.860 424.633, 572.639 426.948, 568.593 426.990 C 567.353 427.003, 568.594 395.638, 570.456 379.896 C 572.020 366.680, 581.717 312.232, 584.953 298.500 C 585.990 294.100, 588.231 282.625, 589.933 273 C 591.636 263.375, 594.146 250.746, 595.513 244.936 C 598.982 230.183, 600.929 216.257, 601.237 203.990 C 601.500 193.517, 601.500 193.517, 597.255 193.347 C 593.685 193.205, 592.717 193.601, 591.171 195.839 M 594.674 200.250 C 593.920 201.488, 590.456 207.225, 586.976 213 C 573.534 235.313, 570.759 239.677, 566.629 245 C 564.282 248.025, 559.576 254.666, 556.172 259.757 C 540.413 283.328, 483.908 360.296, 475.055 370.250 C 472.731 372.862, 470.046 375, 469.088 375 C 467.166 375, 458.514 366.247, 440.916 346.499 C 434.545 339.350, 419.808 324.335, 408.167 313.133 C 387.001 292.765, 387.001 292.765, 390.576 302.633 C 393.818 311.580, 418.908 386.702, 427.024 411.762 C 430.274 421.796, 430.305 422.057, 428.424 423.484 C 427.366 424.287, 426.050 424.789, 425.500 424.599 C 423.164 423.795, 412.885 422.012, 404.947 421.034 C 400.242 420.454, 388.356 417.936, 378.531 415.438 C 368.707 412.940, 356.806 410.228, 352.085 409.411 C 347.363 408.594, 331.800 404.979, 317.500 401.376 C 290.171 394.492, 249.092 387.428, 253.083 390.300 C 253.312 390.465, 262.583 395.630, 273.685 401.777 C 284.787 407.925, 302.643 418.132, 313.367 424.459 C 338.072 439.036, 351.889 446.505, 380 460.476 C 392.375 466.627, 404.412 472.867, 406.750 474.342 C 412.039 477.681, 412.389 480.520, 407.750 482.464 C 401.071 485.262, 365.462 523.870, 332.548 564 C 321.947 576.925, 309.253 591.820, 304.340 597.099 C 295.428 606.675, 288.427 615, 289.285 615 C 290.209 615, 317.688 603.209, 322.691 600.666 C 325.545 599.214, 331.170 596.715, 335.191 595.112 C 339.211 593.510, 356 585.909, 372.500 578.222 C 389 570.534, 403.573 563.915, 404.886 563.512 C 406.198 563.109, 415.198 558.553, 424.886 553.388 C 434.573 548.223, 444.075 543.495, 446 542.881 C 447.925 542.267, 452.758 539.989, 456.739 537.818 C 464.329 533.681, 469.549 533.018, 471.057 536 C 471.838 537.544, 475.129 557.071, 477.495 574.200 C 478.232 579.535, 479.323 591.685, 479.919 601.200 C 481.434 625.352, 483.077 642.232, 484.084 644 C 484.757 645.180, 484.946 645.205, 484.970 644.120 C 484.986 643.361, 489.133 633.011, 494.183 621.120 C 499.234 609.229, 506.547 590.315, 510.433 579.090 C 516.132 562.632, 518.019 558.296, 520.178 556.698 C 522.856 554.717, 522.856 554.717, 548.678 559.889 C 562.880 562.734, 582.789 567.057, 592.921 569.497 C 611.624 574.002, 635.849 578.484, 636.730 577.603 C 636.996 577.337, 635.823 575.405, 634.124 573.310 C 631.220 569.728, 626.858 563.833, 613.930 546.018 C 610.943 541.903, 603.542 532.453, 597.483 525.018 C 577.116 500.028, 571.685 492.224, 572.190 488.675 C 572.393 487.249, 574.328 485.467, 577.809 483.500 C 580.728 481.850, 587.928 477.623, 593.809 474.106 C 599.689 470.590, 613.275 462.783, 624 456.757 C 644.172 445.424, 669.970 429.115, 669.989 427.683 C 670 426.889, 662.925 427.162, 635 429.032 C 627.575 429.530, 609.575 430.461, 595 431.102 C 575.402 431.964, 568.089 432.623, 566.921 433.634 C 564.727 435.533, 563.684 435.357, 561.151 432.660 C 559.176 430.558, 559.049 429.822, 559.905 425.410 C 560.429 422.710, 561.110 414.425, 561.417 407 C 561.725 399.575, 562.664 387.875, 563.504 381 C 565.430 365.230, 575.084 312.130, 579.502 293 C 587.526 258.253, 598.193 198, 596.320 198 C 596.170 198, 595.429 199.012, 594.674 200.250" stroke="none" fill="#7d8dfc" fill-rule="evenodd"/></svg>